# xmcd CD database file
#
# Track frame offsets:
#	150
#	20111
#	42867
#	62115
#	83136
#	99970
#	122698
#	145318
#	160737
#	182160
#
# Disc length: 2695 seconds
#
# Revision: 0
# Processed by: cddbd v1.5.1PL2 Copyright (c) Steve Scherf et al.
# Submitted via: CDex 1.51
#
DISCID=810a850a
DTITLE=Tribute Sounds - Smooth Sax Tribute To Janet Jackson
DYEAR=2002
DGENRE=Jazz
TTITLE0=When I Think Of You
TTITLE1=I Get So Lonely
TTITLE2=Got Til It's Gone
TTITLE3=Black Cat
TTITLE4=Again
TTITLE5=Nasty
TTITLE6=Let's Wait A While
TTITLE7=All For You
TTITLE8=Escapade
TTITLE9=That's The Way Love Goes
EXTD=YEAR: 2002
EXTT0=
EXTT1=
EXTT2=
EXTT3=
EXTT4=
EXTT5=
EXTT6=
EXTT7=
EXTT8=
EXTT9=
PLAYORDER=
